<svg width="212" height="212" viewBox="0 0 212 212" fill="none" xmlns="http://www.w3.org/2000/svg">
<path fill-rule="evenodd" clip-rule="evenodd" d="M212 106C212 164.569 164.539 212 106.066 212C97.0192 212 88.3661 210.952 80.1064 208.855C80.8056 208.855 81.5049 208.855 82.2041 208.855C124.158 208.855 158.115 174.92 158.115 132.991C158.115 91.063 124.158 57.1273 82.2041 57.1273C40.2499 57.1273 6.29313 91.063 6.29313 132.991C6.29313 136.835 6.55535 140.591 7.07978 144.26C2.49103 132.467 0 119.496 0 106C0 47.5625 47.4607 0 106.066 0C164.539 0 212 47.5625 212 106ZM200.856 106C200.856 53.7207 158.377 11.2682 106.066 11.2682C76.9598 11.2682 51.0006 24.3708 33.5634 44.9419C50.0829 30.9221 71.4533 22.5365 94.7904 22.5365C147.102 22.5365 189.581 64.9889 189.581 117.268C189.581 140.591 181.059 161.948 167.161 178.457C187.745 161.031 200.856 135.088 200.856 106Z" fill="url(#paint0_linear_127_64)"/>
<defs>
<linearGradient id="paint0_linear_127_64" x1="-0.0445805" y1="213.069" x2="-0.0445805" y2="7.5484" gradientUnits="userSpaceOnUse">
<stop offset="0.146" stop-color="#A97100"/>
<stop offset="0.822" stop-color="#EDE46E"/>
<stop offset="1" stop-color="#DEC53F"/>
</linearGradient>
</defs>
</svg>
